General

Format                           : MPEG-4
Format profile                   : Base Media
Codec ID                         : isom
File size                        : 82.3 MiB
Duration                         : 3mn 18s
Overall bit rate                 : 3 484 Kbps
Encoded date                     : UTC 2012-06-12 16:00:49
Tagged date                      : UTC 2012-06-12 16:00:49

Video
ID                               : 1
Format                           : AVC
Format/Info                      : Advanced Video Codec
Format profile                   : High@L3.0
Format settings, CABAC           : Yes
Format settings, ReFrames        : 2 frames
Codec ID                         : avc1
Codec ID/Info                    : Advanced Video Coding
Duration                         : 3mn 17s
Bit rate mode                    : Variable
Bit rate                         : 3 395 Kbps
Maximum bit rate                 : 5 661 Kbps
Width                            : 720 pixels
Height                           : 480 pixels
Display aspect ratio             : 4:3
Original display aspect ratio    : 4:3
Frame rate mode                  : Constant
Frame rate                       : 29.970 fps
Standard                         : NTSC
Color space                      : YUV
Chroma subsampling               : 4:2:0
Bit depth                        : 8 bits
Scan type                        : Progressive
Bits/(Pixel*Frame)               : 0.328
Stream size                      : 80.3 MiB (98%)


Audio
ID                               : 2
Format                           : AAC
Format/Info                      : Advanced Audio Codec
Format profile                   : LC
Codec ID                         : 40
Duration                         : 3mn 18s
Bit rate mode                    : Variable
Bit rate                         : 75.0 Kbps
Maximum bit rate                 : 84.7 Kbps
Channel(s)                       : 2 channels
Channel positions                : Front: L R
Sampling rate                    : 48.0 KHz
Compression mode                 : Lossy
Stream size                      : 1.77 MiB (2%)